<?xml version="1.0" standalone="no"?>
<!DOCTYPE svg PUBLIC "-//W3C//DTD SVG 1.1//EN" "http://www.w3.org/Graphics/SVG/1.1/DTD/svg11.dtd" >
<svg xmlns="http://www.w3.org/2000/svg">
<metadata>
Created by FontForge 20120731 at Fri Jan 22 14:15:01 2016
 By Ads
</metadata>
<defs>
<font id="iconfont" horiz-adv-x="1024" >
  <font-face 
    font-family="iconfont"
    font-weight="500"
    font-stretch="normal"
    units-per-em="1024"
    panose-1="2 0 6 3 0 0 0 0 0 0"
    ascent="896"
    descent="-128"
    x-height="792"
    bbox="2 -91 1022 839"
    underline-thickness="50"
    underline-position="-100"
    unicode-range="U+0078-E628"
  />
<missing-glyph horiz-adv-x="374" 
d="M34 0v682h272v-682h-272zM68 34h204v614h-204v-614z" />
    <glyph glyph-name=".notdef" horiz-adv-x="374" 
d="M34 0v682h272v-682h-272zM68 34h204v614h-204v-614z" />
    <glyph glyph-name=".null" horiz-adv-x="0" 
 />
    <glyph glyph-name="nonmarkingreturn" horiz-adv-x="341" 
 />
    <glyph glyph-name="x" unicode="x" horiz-adv-x="1001" 
d="M281 543q-27 -1 -53 -1h-83q-18 0 -36.5 -6t-32.5 -18.5t-23 -32t-9 -45.5v-76h912v41q0 16 -0.5 30t-0.5 18q0 13 -5 29t-17 29.5t-31.5 22.5t-49.5 9h-133v-97h-438v97zM955 310v-52q0 -23 0.5 -52t0.5 -58t-10.5 -47.5t-26 -30t-33 -16t-31.5 -4.5q-14 -1 -29.5 -0.5
t-29.5 0.5h-32l-45 128h-439l-44 -128h-29h-34q-20 0 -45 1q-25 0 -41 9.5t-25.5 23t-13.5 29.5t-4 30v167h911zM163 247q-12 0 -21 -8.5t-9 -21.5t9 -21.5t21 -8.5q13 0 22 8.5t9 21.5t-9 21.5t-22 8.5zM316 123q-8 -26 -14 -48q-5 -19 -10.5 -37t-7.5 -25t-3 -15t1 -14.5
t9.5 -10.5t21.5 -4h37h67h81h80h64h36q23 0 34 12t2 38q-5 13 -9.5 30.5t-9.5 34.5q-5 19 -11 39h-368zM336 498v228q0 11 2.5 23t10 21.5t20.5 15.5t34 6h188q31 0 51.5 -14.5t20.5 -52.5v-227h-327z" />
    <glyph glyph-name="uniE600" unicode="&#xe600;" 
d="M942 169q-9 -9 -21.5 -9.5t-21.5 7.5l-370 370q-11 12 -17 12t-18 -12l-370 -370q-8 -8 -21 -7.5t-22 10t-9.5 22t8.5 21.5l411 411q7 7 18 8h5q6 -1 10.5 -3t8.5 -5l411 -411q16 -17 3 -38q-3 -4 -5 -6z" />
    <glyph glyph-name="uniE601" unicode="&#xe601;" 
d="M741 731h-463v55q0 5 3.5 8.5t8.5 3.5h439q3 0 6 -1.5t4.5 -4.5t1.5 -6v-55zM741 170h-463v528h463v-528zM741 -16q0 -4 -1.5 -6.5t-4.5 -4t-6 -1.5h-439q-3 0 -5 1t-3.5 2.5t-2.5 3.5t-1 5v153h463v-153zM729 831h-439q-19 0 -32 -13.5t-13 -31.5v-802q0 -19 13 -32
t32 -13h439q19 0 32 13t13 32v802q0 12 -6 22.5t-16.5 16.5t-22.5 6zM460 71h99v-33h-99v33z" />
    <glyph glyph-name="uniE602" unicode="&#xe602;" 
d="M513.5 779q-115.5 0 -213.5 -56.5t-155 -154.5t-57 -214t57 -214t155 -155t213.5 -57t213.5 57t155 155t57 214t-57 214t-155 154.5t-213.5 56.5zM513.5 -33q-105.5 0 -194.5 52t-140.5 141t-51.5 194q0 79 30.5 150.5t82.5 123.5t123.5 82.5t149.5 30.5q53 0 103 -14
t92.5 -39t78.5 -60.5t61 -78t38.5 -92.5t13.5 -103q0 -105 -51.5 -194t-140.5 -141t-194.5 -52zM664 267q-35 0 -57 -27l-172 98q1 4 1.5 8t0.5 9q0 10 -3 19l170 92q10 -12 24.5 -18.5t31.5 -6.5q30 0 51.5 21.5t21.5 52t-21.5 52t-52 21.5t-52 -21.5t-21.5 -52.5
q0 -7 2 -15l-172 -93q-10 10 -23.5 16t-29.5 6q-20 0 -36.5 -10t-26.5 -26.5t-10 -36.5t10 -37t26.5 -27t36.5 -10q17 0 31 6.5t25 18.5l173 -99q-1 -1 -1 -3t-0.5 -3.5t-0.5 -3.5v-3q0 -15 6 -29t15.5 -23.5t23.5 -15.5t29 -6q20 0 36.5 10t26.5 27t10 37q0 30 -21.5 51.5
t-51.5 21.5z" />
    <glyph glyph-name="uniE603" unicode="&#xe603;" 
d="M839 526q-30 -19 -51 -44.5t-31.5 -53.5t-13.5 -58t4.5 -59t22 -55t38.5 -47.5t55 -35.5q-2 -6 -6 -16t-7 -18t-7 -16q-34 -78 -92 -142q-22 -23 -44.5 -34.5t-48 -10.5t-55.5 13q-18 7 -34 12.5t-32 8.5q-41 8 -91 -12q-2 -1 -7 -3t-7.5 -3.5t-6.5 -3.5l-8 -2
q-4 -2 -7 -3q-63 -23 -113 21q-48 43 -89 115q-81 143 -74 289q6 128 93 197q70 56 152 45q10 -2 20 -4.5t24.5 -7.5t19.5 -7q6 -2 12.5 -4.5t12.5 -5.5q33 -14 71 0q59 23 89 30q19 4 39.5 4t40 -4t39 -12t36 -18.5t31 -24.5t25.5 -30zM676 830q3 -29 -4.5 -60t-24.5 -57.5
t-39.5 -47t-51.5 -31.5t-58 -9q-11 40 14 89t71.5 83t92.5 33z" />
    <glyph glyph-name="uniE604" unicode="&#xe604;" 
d="M924 120q-5 -11 -14 -23t-17.5 -22t-17.5 -17q-19 -17 -36 -29t-35.5 -21t-38 -12.5t-40.5 -0.5q-24 3 -59.5 15t-77.5 32.5t-85.5 46.5t-88.5 59t-82 67q-92 85 -161 194t-77 171q-6 35 16.5 74.5t61.5 70.5q43 34 70 44q11 5 21 5.5t22 -4.5q2 -1 5 -2t5 -2l2 -1
q3 -2 8.5 -5t21 -16.5t29.5 -31.5q21 -28 37 -53q8 -14 16 -29t12 -23l3 -8l3 -7q2 -5 2.5 -10t-0.5 -9.5t-3.5 -9t-6.5 -8.5q-2 -1 -3 -2l-4 -3q-3 -2 -3 -3q-5 -3 -8.5 -5t-5.5 -3t-3.5 -2t-4.5 -2.5t-7 -4.5q-6 -3 -13 -6t-12.5 -5.5t-15 -6t-17.5 -7.5q-12 -6 -19 -18
t-7 -23t3 -20q11 -23 26 -45t38.5 -48t54.5 -55q62 -57 151 -107q12 -6 24.5 -6.5t23 4.5t18.5 12.5t13 15.5q6 9 14 24.5t10 20.5q19 32 22 33q7 11 20 15q17 6 32 -1l19 -9l42 -26q32 -21 70 -52q4 -3 8 -6.5t7 -5.5l6 -6q3 -2 5 -4t4 -3.5t3 -3t2 -2.5l1 -1v0l9 -11l4 -5
q3 -5 4.5 -12t0.5 -14.5t-3 -14t-4 -11.5z" />
    <glyph glyph-name="uniE605" unicode="&#xe605;" 
d="M790 280q0 -24 16 -40.5t39 -16.5t39.5 16.5t16.5 40.5v216q0 5 -1 9.5t-2 8.5l-4 8q-1 4 -3.5 7.5t-6 6.5t-6.5 5.5t-7 4.5t-8 3t-8.5 2t-9.5 1q-23 0 -39 -16.5t-16 -39.5v-216zM592 680q0 11 8 18.5t19 7.5q12 0 20 -7.5t8 -18.5t-8 -19t-20 -8q-7 0 -13.5 3.5
t-10 9.5t-3.5 14zM381 680q0 3 1 6.5t3 6.5t4.5 5.5t5.5 4t6.5 2.5t6.5 1q12 0 19.5 -7.5t7.5 -18.5t-7.5 -19t-19.5 -8q-11 0 -19 8t-8 19zM267 153q0 -11 6 -21t16 -16t22 -6h49v-120q0 -23 16 -39.5t39 -16.5t39 16.5t16 39.5v120h86v-120q0 -23 16 -39.5t39 -16.5
t39.5 16.5t16.5 39.5v120h49q18 0 30.5 12.5t12.5 30.5v398h-492v-398v0zM758 585q-5 56 -40 101t-89 70l45 65q1 2 1.5 4.5t-0.5 4.5t-2 2q-6 4 -11 -2l-48 -68q-25 9 -50.5 14t-51.5 5q-51 0 -102 -19l-47 68q-6 7 -11 2q-7 -4 -2 -11l46 -65q-22 -10 -41 -23.5
t-34.5 -29.5t-26.5 -34.5t-18.5 -39.5t-9.5 -44h492v0zM123 280q0 -24 16 -40.5t40 -16.5q15 0 27.5 8t20 20.5t7.5 28.5v216q0 9 -3 17.5t-8 15.5t-12 12t-15 8t-17 3q-24 0 -40 -16t-16 -40v-216z" />
    <glyph glyph-name="uniE606" unicode="&#xe606;" 
d="M571 99q-27 -20 -59 -20t-59 20q-28 20 -43 0q-7 -8 -5 -45.5t10 -48.5q7 -6 11 -4t13.5 8t16.5 6q21 1 40 -56q6 -20 16 -21q10 1 16 21q19 58 40 57q7 -1 16.5 -7t13.5 -8t11 4q8 11 9.5 48.5t-4.5 46.5q-16 19 -43 -1zM762 332l-8 14q-7 13 -11.5 19t-21 24t-41.5 40
q0 65 -17 129.5t-41.5 111t-49.5 82.5t-42.5 57t-17.5 23q-7 -4 -24.5 -23t-42.5 -57t-47.5 -83.5t-38 -110t-15.5 -129.5q-20 -19 -34 -33t-22.5 -24.5t-12 -15.5t-8 -14t-5.5 -12q-16 -29 -13.5 -112.5t17.5 -110.5q21 -36 65 1q3 2 20 21.5t32.5 34.5t21.5 13
q15 3 32 -13q33 -31 75 -33q9 1 23 6t29 12.5t23 14.5q4 5 9.5 8t9 4t7 1.5t4.5 0.5h2q6 1 21.5 -14t32.5 -34t21 -22q43 -36 64 1q10 16 15 62.5t2 94.5t-13 66zM511 421q-21 -1 -39.5 10t-29.5 29.5t-11 40t10.5 40t29 29.5t40.5 11q9 0 18 -2.5t17 -6t15 -9t12.5 -12.5
t9.5 -15t6 -17t2 -18q0 -33 -23 -56.5t-57 -23.5zM512 131z" />
    <glyph glyph-name="uniE607" unicode="&#xe607;" 
d="M866 384q0 72 -28 137.5t-75.5 113t-113 75.5t-137.5 28q-96 0 -177.5 -47.5t-129 -129t-47.5 -177.5t47.5 -177.5t129 -129t177.5 -47.5q58 0 112 18t97 51t76 76t51 97t18 112zM207 384q0 24 3.5 47.5t10.5 45.5q110 3 207 44t165 112q40 -41 90 -72.5t107 -51.5
q14 -29 20.5 -60.5t6.5 -64.5q0 -62 -24 -118.5t-65 -97.5t-97.5 -65t-118.5 -24q-126 0 -215.5 89.5t-89.5 215.5zM397 477q-12 0 -23.5 -5t-20 -13t-13.5 -19.5t-5 -24.5q0 -17 8.5 -31t23 -22.5t30.5 -8.5q13 0 25 5t20 14t13 20l-45 23l45 22q-3 9 -9 16.5t-13.5 12.5
t-16.5 8t-19 3zM631 353q5 0 10 0.5t9 2t8.5 3.5t8 4.5t7 6t6 7t5 7.5t4.5 8l-46 23l46 22q-4 9 -9.5 16t-13 12.5t-16.5 8.5t-19 3q-12 0 -23.5 -5t-20 -13.5t-13.5 -20t-5 -23.5q0 -26 18 -44t44 -18zM935 445q-11 108 -69.5 197t-152 140.5t-201.5 51.5t-201.5 -51.5
t-152 -140.5t-69.5 -197q-27 -10 -27 -38v-78q0 -12 5.5 -21t15 -14.5t20.5 -5.5t20.5 5.5t15 14.5t5.5 21v78q0 4 -0.5 8t-2 7.5t-3.5 6.5t-4.5 5.5t-5.5 5t-6 3.5q15 152 127 255.5t263 103.5q100 0 186 -47.5t140 -129.5t64 -182q-22 -11 -22 -36v-78q0 -13 7 -23.5
t19 -14.5q-19 -80 -66.5 -146t-117 -109t-150.5 -56l-4 4q-1 1 -3 2l-4 4q-2 1 -5 2l-4 2l-6 2t-5.5 1.5t-6.5 0.5h-6q-13 0 -24 -4t-17.5 -11.5t-6.5 -16.5q0 -13 14 -22.5t34 -9.5q19 0 33 9t15 21q127 21 222 109.5t124 214.5q16 0 28 12t12 29v78q0 13 -7.5 23.5
t-19.5 14.5z" />
    <glyph glyph-name="uniE608" unicode="&#xe608;" 
d="M711 392q-14 2 -18.5 8t-0.5 11l3 4q1 3 3 6.5t5 14.5t4 22t-3.5 24.5t-15.5 23.5q-9 10 -23.5 15t-29 5t-30.5 -2t-29.5 -6t-24.5 -8t-17 -7l-7 -3q-10 -3 -16 -4t-9.5 0.5t-5.5 3t-1.5 7t1 9t2.5 11.5t3 13q0 12 -1.5 22t-6 22t-14 20t-23 13t-35.5 3t-50 -12
q-24 -8 -48.5 -22.5t-45.5 -31t-40 -34.5t-34 -34.5t-26 -29.5t-17 -21l-5 -8q-31 -41 -46 -82.5t-15 -61.5v-21q5 -46 27.5 -82t53.5 -59t73 -38.5t80.5 -23t81.5 -10.5q71 -6 146.5 11t141 58t92.5 99q16 34 16 63.5t-10 48t-27 33t-31.5 21t-26.5 9.5zM421 94
q-103 -5 -175 40t-72 114q0 68 71.5 117.5t175.5 54.5q104 4 175.5 -35.5t71.5 -106.5q0 -73 -78 -128q-73 -52 -169 -56zM393 359q-38 -4 -64.5 -21t-37 -37.5t-16 -40.5t-4.5 -33l1 -13v-5q0 -3 2 -11t5.5 -15.5t11 -16.5t18.5 -14q38 -21 78.5 -22t72.5 15t54 44
q16 20 17.5 51.5t-10.5 60t-45.5 46.5t-82.5 12zM359 177q-19 -2 -32.5 8t-13.5 26q0 17 12.5 31t30.5 16q22 2 35.5 -9t13.5 -27q0 -8 -3.5 -15.5t-10 -13.5t-15 -10t-17.5 -6zM440 247q-3 -2 -5.5 -3t-5.5 -1.5t-5.5 0.5t-4.5 2.5t-3 3.5q-4 6 -2.5 14t8.5 12q7 6 14 5
t11 -7q2 -4 2 -8.5t-2.5 -9.5t-6.5 -8zM778 448q5 0 10 2.5t8 6.5t4 10v2q4 31 -1 54.5t-15.5 36.5t-24.5 22t-28.5 11.5t-26.5 3t-19 -0.5l-8 -1q-9 0 -16 -7t-7 -16t7 -16t16 -7q30 6 47 0.5t24 -18.5t8.5 -26.5t0.5 -23.5l-2 -11q0 -4 2 -8.5t5 -7.5t7 -4.5t9 -1.5z
M762 713q-22 5 -48.5 4.5t-38.5 -2t-26 -4.5l-1 -1h-2l-1 -1q-10 -2 -16.5 -11t-6.5 -20q0 -14 9.5 -23.5t22.5 -9.5q2 0 5.5 0.5t11.5 2.5t13 4q5 0 16.5 1.5t31 -3.5t39 -12.5t40.5 -25t35 -41.5q25 -57 10 -109q0 -2 -1.5 -5t-3 -11.5t-1.5 -15.5q0 -14 9 -22t23 -8
t21.5 5t10.5 23q17 53 13 96.5t-18.5 75.5t-40.5 55.5t-52 37t-54 20.5z" />
    <glyph glyph-name="uniE609" unicode="&#xe609;" 
d="M664 443q13 0 30 -1q-20 92 -108.5 153t-202.5 61q-127 0 -217.5 -75.5t-90.5 -184.5q0 -120 123 -205l-31 -92l108 53q6 -1 16 -3t16 -3t14.5 -2.5t15 -2.5t14.5 -2t16 -1.5t16 -0.5q7 0 14 0.5t15 0.5q-5 16 -7.5 32t-2.5 32q0 100 76.5 170.5t185.5 70.5zM499 526
q17 0 27.5 -10.5t10.5 -27.5q0 -8 -2.5 -15.5t-7.5 -12.5t-12.5 -7.5t-15.5 -2.5q-19 0 -33 11t-14 27q0 8 4 15.5t10.5 12.5t15 7.5t17.5 2.5zM283 450q-4 0 -8.5 0.5t-8.5 2t-8 3.5t-7 4.5t-5.5 5.5t-4.5 6.5t-3 7.5t-1 8q0 11 6.5 20t17 13.5t22.5 4.5q9 0 16 -2.5
t12 -7.5t7.5 -12t2.5 -16q0 -17 -10.5 -27.5t-27.5 -10.5zM945 206q0 90 -78 155.5t-183 65.5q-110 0 -186 -64.5t-76 -156.5t76 -156.5t186 -64.5q31 0 92 15l85 -46l-23 76q49 37 78 82t29 94zM599 244q-8 0 -15 4.5t-11.5 11.5t-4.5 14.5t4.5 14.5t11.5 11.5t15 4.5
q17 0 27.5 -9.5t10.5 -20.5q0 -4 -1 -8t-3.5 -7.5t-6 -6t-7.5 -5t-9.5 -3.5t-10.5 -1zM768 244q-7 0 -14 4.5t-11.5 11.5t-4.5 15q0 11 9.5 20.5t20.5 9.5q17 0 28 -9.5t11 -21.5t-11 -21t-28 -9z" />
    <glyph glyph-name="uniE60A" unicode="&#xe60a;" 
d="M512 780q-120 0 -205.5 -85.5t-85.5 -206.5q0 -63 25 -119q33 -72 90.5 -158.5t94 -132t69.5 -84.5q5 -6 12 -6t12 6q17 20 35.5 42.5t50.5 64t59.5 82t57.5 91t51 95.5q25 56 25 119q0 121 -85.5 206.5t-205.5 85.5zM512 337q-63 0 -107 44.5t-44 106.5q0 41 20 76
t55 55.5t76 20.5t76 -20.5t55 -55.5t20 -76q0 -20 -5.5 -39.5t-15 -36.5t-23.5 -31t-30.5 -23.5t-36 -15t-40.5 -5.5z" />
    <glyph glyph-name="uniE60B" unicode="&#xe60b;" 
d="M888 598q-6 6 -14.5 8t-16.5 -0.5t-14 -9.5l-427 -454l-233 230q-10 9 -23 9t-22.5 -9.5t-9.5 -23t10 -22.5l256 -253h1q1 -1 7 -4l1 -1l2 -2q3 -1 6 -1.5t6 -0.5q6 0 12 3q1 0 2 1t2 1q5 3 7 5v0l449 479q9 9 9 22.5t-10 22.5z" />
    <glyph glyph-name="uniE60C" unicode="&#xe60c;" 
d="M557 383l266 264q9 9 9 22t-9 23q-6 6 -14.5 8.5t-16.5 0t-15 -8.5l-265 -264l-263 264q-9 9 -22.5 9t-23 -9t-9.5 -22.5t10 -22.5l263 -264l-265 -264q-10 -9 -10 -22.5t9.5 -22.5t22.5 -9q6 0 12 2t11 7l265 264l265 -267q10 -9 23 -9q6 0 12 2.5t11 6.5q9 10 9 23
t-9 23z" />
    <glyph glyph-name="uniE60D" unicode="&#xe60d;" 
d="M512 832q-91 0 -174 -35.5t-143 -95.5t-95.5 -143t-35.5 -174q0 -61 16.5 -119t45 -107t70 -90.5t90.5 -70t107 -45t119 -16.5q91 0 174 35.5t143 95.5t95.5 143t35.5 174t-35.5 174t-95.5 143t-143 95.5t-174 35.5zM404 384q0 -3 -1 -9v-1l181 -92q4 4 8.5 7.5t9.5 6
t10.5 4.5t11.5 3t12 1q30 0 51 -21t21 -51q0 -15 -5.5 -28t-15.5 -22.5t-23 -15.5t-28 -6q-20 0 -36.5 9.5t-26 26.5t-9.5 36q0 3 1 8v2l-182 92q-6 -7 -14 -12t-17.5 -7.5t-19.5 -2.5q-30 0 -51 21t-21 51q0 20 9.5 36.5t26.5 26t36 9.5q29 0 51 -21l182 92q-1 7 -1 9
q0 30 21 51t51 21t51 -21t21 -51q0 -20 -9.5 -36.5t-26 -26t-36.5 -9.5q-31 0 -52 22l-181 -91q1 -7 1 -11zM512 832q-91 0 -174 -35.5t-143 -95.5t-95.5 -143t-35.5 -174q0 -61 16.5 -119t45 -107t70 -90.5t90.5 -70t107 -45t119 -16.5q91 0 174 35.5t143 95.5t95.5 143
t35.5 174t-35.5 174t-95.5 143t-143 95.5t-174 35.5zM404 384q0 -3 -1 -9v-1l181 -92q4 4 8.5 7.5t9.5 6t10.5 4.5t11.5 3t12 1q30 0 51 -21t21 -51q0 -15 -5.5 -28t-15.5 -22.5t-23 -15.5t-28 -6q-20 0 -36.5 9.5t-26 26.5t-9.5 36q0 3 1 8v2l-182 92q-6 -7 -14 -12
t-17.5 -7.5t-19.5 -2.5q-30 0 -51 21t-21 51q0 20 9.5 36.5t26.5 26t36 9.5q29 0 51 -21l182 92q-1 7 -1 9q0 30 21 51t51 21t51 -21t21 -51q0 -20 -9.5 -36.5t-26 -26t-36.5 -9.5q-31 0 -52 22l-181 -91q1 -7 1 -11z" />
    <glyph glyph-name="uniE60E" unicode="&#xe60e;" 
d="M800 416h-256v256q0 13 -9.5 22.5t-22.5 9.5t-22.5 -9.5t-9.5 -22.5v-256h-256q-13 0 -22.5 -9.5t-9.5 -22.5t9.5 -22.5t22.5 -9.5h256v-256q0 -13 9.5 -22.5t22.5 -9.5t22.5 9.5t9.5 22.5v256h256q13 0 22.5 9.5t9.5 22.5t-9.5 22.5t-22.5 9.5z" />
    <glyph glyph-name="uniE60F" unicode="&#xe60f;" 
d="M916 605h-778q-6 0 -10.5 3t-7 7.5t-2.5 10.5q0 8 6 14t14 6h778q9 0 15 -6t6 -14q0 -6 -3 -10.5t-7.5 -7.5t-10.5 -3zM937 400.5q0 -8.5 -6 -14.5t-15 -6h-778q-8 0 -14 6t-6 14q0 6 2.5 10.5t7 7.5t10.5 3h778q9 0 15 -6t6 -14.5zM916 155h-778q-8 0 -14 6t-6 14
q0 3 0.5 5.5t2 5t3 4.5t4.5 3l4 2q3 1 6 1h778q16 0 20 -16l1 -5q0 -3 -1 -6t-3 -5.5t-4.5 -4.5t-5.5 -3t-7 -1z" />
    <glyph glyph-name="uniE610" unicode="&#xe610;" 
d="M245.5 321q-34.5 0 -59.5 25t-25 60t25 59.5t59.5 24.5t59.5 -24.5t25 -59.5t-25 -60t-59.5 -25zM246 449q-6 0 -12 -1.5t-10.5 -4t-8.5 -6.5t-7 -9t-4.5 -10.5t-1.5 -11.5q0 -18 13 -31t31 -13t30.5 13t12.5 31q0 12 -6 22t-16 15.5t-21 5.5zM523.5 321
q-34.5 0 -59.5 25t-25 60t25 59.5t59.5 24.5t59.5 -24.5t25 -59.5t-25 -60t-59.5 -25zM523 449q-18 0 -30.5 -12.5t-12.5 -30.5t12.5 -31t30.5 -13q12 0 22 6t16 16t6 22q0 18 -13 30.5t-31 12.5zM801 321q-35 0 -59.5 25t-24.5 60t24.5 59.5t59.5 24.5t60 -24.5t25 -59.5
t-25 -60t-60 -25zM801 449q-18 0 -30.5 -12.5t-12.5 -30.5t12.5 -31t30.5 -13q5 0 9 1t8 2.5t7.5 4t6.5 5.5t5.5 6.5t4 7.5t2.5 8t1 9q0 18 -13 30.5t-31 12.5z" />
    <glyph glyph-name="uniE611" unicode="&#xe611;" 
d="M503 161q5 -5 12 -5h1h2q3 0 5.5 1.5t5.5 3.5l294 290q3 3 4.5 7.5t0 9t-4.5 7.5q-5 5 -12 5t-12 -5l-266 -262v577q0 7 -5 12t-12 5t-12 -5t-5 -12v-577l-270 265q-5 5 -12 5t-12 -5q-3 -3 -4 -7.5t0 -9t5 -7.5zM824 209q-7 0 -12 -5t-5 -12v-145q0 -6 -2.5 -11
t-7.5 -7.5t-11 -2.5h-544q-5 0 -10 2.5t-7.5 7.5t-2.5 11v145q0 7 -5 12t-12 5q-5 0 -9 -2t-6.5 -6t-2.5 -9v-145q0 -11 4.5 -21.5t12 -17.5t17.5 -11.5t21 -4.5h544q23 0 39 16t16 39v145q0 7 -5 12t-12 5z" />
    <glyph glyph-name="uniE612" unicode="&#xe612;" 
d="M370 568h-299q-11 0 -18 -7.5t-7 -17.5t7 -17.5t18 -7.5h275q10 26 24 50zM663 71q-65 0 -123 25t-100.5 67.5t-67.5 101t-25 122.5q0 85 42.5 158t115 115t158.5 42q64 0 122.5 -25t100.5 -67t67 -100.5t25 -122.5q0 -131 -92.5 -223.5t-222.5 -92.5zM663 662
q-114 0 -194.5 -81t-80.5 -194.5t80.5 -194t194 -80.5t194 80.5t80.5 194.5q0 56 -21.5 106.5t-58.5 87.5t-88 59t-106 22zM696 431v132q0 10 -7.5 17.5t-17.5 7.5t-17.5 -7.5t-7.5 -17.5v-132q-18 -13 -18 -35q0 -4 1 -8l-117 -122q-8 -7 -7.5 -17t7.5 -17q3 -3 5.5 -4.5
t5.5 -2t6 -0.5q11 0 18 7l117 122q4 -1 7 -1t6.5 0.5t7 1.5t6.5 2.5t5.5 3.5t5 4.5t4 5t3.5 5.5t3 6t1.5 6.5t0.5 7.5q0 7 -2.5 13.5t-6.5 12t-9 9.5zM324 399q0 19 2 39h-163q-10 0 -17.5 -7t-7.5 -17.5t7.5 -17.5t17.5 -7h161v2v8zM336 309h-80q-11 0 -18 -7.5t-7 -17.5
t7 -17.5t18 -7.5h99q-11 24 -19 50z" />
    <glyph glyph-name="uniE613" unicode="&#xe613;" 
d="M516.5 -57q-90.5 0 -173.5 35.5t-143 95.5t-95 142.5t-35 173.5q0 73 22.5 141t64 123t96 96.5t123 64t141 22.5t141 -22.5t123.5 -64t96 -96.5t64 -123t23 -141q0 -91 -35.5 -173.5t-95.5 -142.5t-143 -95.5t-173.5 -35.5zM517 819q-117 0 -215.5 -57.5t-156 -156.5
t-57.5 -215t57.5 -214.5t156 -156t215.5 -57.5q87 0 166 34t136.5 91.5t91.5 136.5t34 166t-34 166.5t-91.5 137t-136.5 91.5t-166 34zM689 498h-53q78 15 122 47q6 4 2 9.5t-9 1.5q-18 -13 -43.5 -23.5t-48.5 -16t-49 -9.5q21 8 37.5 17.5t28 22t11.5 25.5q0 18 -7 33.5
t-19 27t-28 18.5t-34 7q-14 0 -26.5 -4t-23 -11t-19 -17t-13.5 -22q-10 24 -32 39t-50 15q-14 0 -27.5 -4.5t-24.5 -12.5t-19 -18.5t-12.5 -23.5t-4.5 -27q0 -36 77 -65q-41 6 -78 18t-63 31q-2 2 -5 1.5t-4 -3.5q-4 -5 1 -9q24 -17 55.5 -28.5t67.5 -18.5h-54
q-16 0 -31.5 -5t-28 -14.5t-21.5 -22t-14 -28t-5 -31.5v-13q0 -6 6 -6h20v-154q0 -17 5 -32.5t14.5 -27.5t21.5 -21.5t27.5 -14.5t32.5 -5h292q14 0 27 3.5t24 10t20.5 16t16 20.5t10 24t3.5 27v154h20q3 0 4.5 2t1.5 4v13q0 42 -29.5 71.5t-71.5 29.5zM420 522
q-60 25 -60 50q0 20 10 36.5t27.5 26.5t37.5 10q31 0 53.5 -21.5t22.5 -51.5q0 -3 2 -5t4.5 -2t4.5 2t2 5q0 30 22 51.5t53 21.5q20 0 37.5 -10t27.5 -26.5t10 -36.5q0 -25 -61 -50q-15 -6 -31 -11t-30 -7.5t-25 -3.5h-3h-3h-1q-1 0 -2 -1h-1h-1l-2 1h-7q-18 1 -41 7t-46 15
zM256 397q0 36 26 62t62 26h166v-94h-254v6zM282 224v154h228v-242h-140q-36 0 -62 25.5t-26 62.5zM751 224q0 -24 -12 -44.5t-32 -32t-44 -11.5h-140v242h228v-154zM777 391h-254v94h166q14 0 27.5 -4.5t24.5 -12.5t19 -19t12.5 -24.5t4.5 -27.5v-6z" />
    <glyph glyph-name="uniE614" unicode="&#xe614;" 
d="M819 338q-4 -3 -8 -3t-8 3l-152 116l-72 -432q-1 -3 -2 -5q-11 -46 -64 -77t-123 -31q-51 0 -94.5 17.5t-69 47t-25.5 64.5t25.5 64.5t69 46.5t94.5 17q22 0 42.5 -3t39 -9t35.5 -15l95 542q1 4 3.5 6.5t6.5 3.5q8 1 13 -6l196 -332q5 -8 -2 -15z" />
    <glyph glyph-name="uniE615" unicode="&#xe615;" 
d="M516 148q3 0 5.5 1t6.5 4q41 35 111 97t128.5 114t109.5 97l1 42q-1 0 -2 1t-3 2.5t-4 2.5q-66 -58 -188 -166t-165 -145q-351 312 -350 312l-8 -7v-9v-16v-17q128 -114 347 -308q7 -5 11 -5zM120 -7v521q0 13 6 17l373 303q11 10 23 0l378 -303q15 -11 15 -17v-521
q0 -16 -35 -16h-746q-3 0 -5.5 1t-4.5 2.5t-3 5t-1 7.5zM878 503l-361 288l-359 -288v-487h720v487zM499 306q-30 25 -64 57.5t-70 79.5t-36 75q0 50 32.5 85.5t78.5 35.5q39 0 69 -26q30 26 69 26q47 0 79 -35.5t32 -85.5q0 -63 -170 -212q-8 -5 -12 -5q-8 0 -8 5zM519 568
q-4 -4 -9.5 -5.5t-11 0t-9.5 5.5q-10 13 -24.5 20.5t-30.5 7.5q-20 0 -36.5 -10.5t-26 -28.5t-9.5 -39q0 -7 8 -20.5t22 -30.5t32 -36.5t39 -40t42 -39.5q57 50 100 99t43 68q0 16 -5.5 30.5t-15 25t-23 16.5t-28.5 6q-31 0 -57 -28z" />
    <glyph glyph-name="uniE616" unicode="&#xe616;" 
d="M966 489q32 -2 55 19q-17 -46 -77 -43q-58 -6 -76 59l-74 -3v12l70 3l-16 55h56l16 -52l98 4v-12l-93 -4q12 -42 41 -38zM784 466h-55v51q-32 -6 -40 -5q26 9 58 79h57l-5 -13l-5 -12q-2 -5 -4.5 -10.5t-5.5 -10.5v-79zM611 517h-60v30h-79v-30h-60v30h-61v13h61v32h60
v-32h79v32h60v-32h64v-13h-64v-30zM6 460h129v35h-105v14h105v32h-118v14h118v36h60v-36h124v-14h-124v-32h109v-14h-109v-35h135v-12h-324v12zM370 504h291v-14h-291v14zM667 400h-55v-72q1 -61 -59 -59q-69 1 -98 39q31 -10 64 -10q33 -2 31 36v66h-125q-48 -2 -43 29
q1 8 5.5 20.5t13.5 31.5h58q-15 -31 -17 -50q-6 -19 27 -16h81v66h62v-66h55v-15zM726 331v123h53v-27q2 8 7 14t14 9.5t21 3.5h130q25 2 37 -9t10 -33v-77h-55v76q0 6 -1 10.5t-3.5 7.5t-6.5 5.5t-9 3t-11 0.5h-100q-22 0 -33 -22v-85h-53zM512 210q-172 -3 -311 73l-20 12
q-44 -24 -71 -26q-31 -5 -108 -2q8 3 30.5 10t37.5 11.5t35.5 13.5t36.5 18q-1 1 -3.5 3t-5.5 4.5t-8 6.5t-9 7l-27 22q23 17 37 19q10 1 19 -7l38 -29q7 3 16.5 9.5t24.5 21t14 24.5q0 3 -2 4.5t-5.5 2.5t-8.5 1h-77l-40 -9q8 13 11 15q13 10 38 10h100h10q4 0 8 -1t7 -2
l6 -2q3 -1 5.5 -3t4 -4t3 -4.5t2.5 -4.5q3 -22 -12 -34q-6 -5 -12.5 -10t-11.5 -9.5t-10.5 -8t-9.5 -7t-7.5 -6t-6.5 -4.5t-5 -3t-3 -2l-1 -1q3 -3 10 -8.5t33 -20t56.5 -25.5t81.5 -19.5t109 -8.5q80 0 140.5 16t107.5 41q9 4 17 9.5t14.5 10.5t12 9.5t9.5 9t7 8.5t5.5 7
t3.5 5.5t2 3.5l1 1l1 17v46h57v-59l1 -4q38 -36 69.5 -56t62.5 -32q-58 0 -79 4q-21 3 -33 11q-5 4 -12 9t-13 10t-11 9.5t-8 7.5l-3 2q-4 -4 -12 -11.5t-38.5 -26.5t-67 -34t-99.5 -27.5t-134 -13.5zM960 643q-18 0 -31 -12.5t-13 -30.5t13 -31t31 -13t30.5 13t12.5 31
t-12.5 30.5t-30.5 12.5zM960 574l-26 26l26 25l25 -25zM31 395q20 35 56 43q5 -16 3 -34.5t-12 -35.5q-20 -35 -56 -43q-11 35 9 70zM397 345q20 35 56 42q5 -15 3 -34t-12 -36q-20 -34 -56 -42q-11 35 9 70z" />
    <glyph glyph-name="uniE617" unicode="&#xe617;" 
d="M663 233h-33v101h33v-101zM394 334h-33v-101h33v101zM882 628v-236q0 -31 -22.5 -53t-53.5 -22h-76v-210q0 -12 -5.5 -21.5t-15 -15t-21.5 -5.5h-352q-12 0 -21.5 5.5t-15 15t-5.5 21.5v210h-76q-31 0 -53.5 22t-22.5 53v236q0 31 22.5 53t53.5 22h588q31 0 53.5 -22
t22.5 -53zM403 535q0 -27 14.5 -50.5t39.5 -37t55 -13.5q45 0 77 30t32 71h-218zM369 535h-42v-327q0 -9 9 -9h352q9 0 9 9v327h-42q0 -55 -42 -94.5t-101 -39.5t-101 39.5t-42 94.5zM730 485h17v50h-17v-50zM327 157q0 -8 9 -8h352q7 1 9 8v9h-4h-5h-352h-5h-4v-9zM294 535
h-17v-50h17v50zM697 107v9q-4 -1 -9 -1h-352q-3 0 -5 0.5t-4 0.5v-9q0 -9 9 -9h352q9 0 9 9zM848 628q0 11 -5.5 20.5t-15.5 15.5t-21 6h-588q-11 0 -21 -6t-15.5 -15.5t-5.5 -20.5v-236q0 -17 12.5 -29.5t29.5 -12.5h76v101h-51v118h538v-118h-51v-101h76q17 0 29.5 12.5
t12.5 29.5v236z" />
    <glyph glyph-name="uniE618" unicode="&#xe618;" 
d="M598 328q3 0 5.5 0.5t4.5 1.5t4 2.5t3.5 3.5t2.5 4t1.5 4.5t0.5 5.5q0 6 -3 11t-8 8t-11 3q-9 0 -15.5 -6.5t-6.5 -15.5q0 -18 18 -21q2 -1 4 -1zM422 328q10 0 16 6.5t6 15.5q0 4 -1 7t-3 6t-4.5 5t-6 3t-7.5 1q-9 0 -15.5 -6.5t-6.5 -15.5q0 -18 18 -21q3 -1 4 -1z
M691 497l48 120q4 10 -4 17.5t-18 1.5l-62 -33l-29 74q-2 4 -4.5 6.5t-6.5 3.5h-5q-3 0 -5 -1l-4 -2l-62 -53l-38 59q-6 10 -17 7q-3 -1 -6 -3t-4.5 -4.5t-1.5 -6.5l-14 -126q-38 -8 -73 -26t-62.5 -44t-48 -58t-31.5 -70t-11 -77q0 -115 82 -197t198 -82t198 82t82 197
q0 42 -12 81t-34.5 73t-54.5 61zM498 636l24 -37q4 -6 11 -7t13 4l58 49l28 -71q3 -6 9.5 -8.5t12.5 0.5l40 22l-34 -86q-45 -2 -88 9q-43 10 -83 34zM512 34q-103 0 -175.5 73t-72.5 175q0 58 25.5 109.5t70.5 86.5t102 47q1 -1 1 -2q3 -1 7 -3l14 -8q10 -6 21 -11
t27.5 -11t32.5 -10q39 -9 82 -9q15 0 25 1q42 -36 65 -85.5t23 -104.5q0 -67 -33 -124t-90.5 -90.5t-124.5 -33.5zM650 252h-276q-3 0 -5.5 -1.5t-4 -4.5t-1.5 -6q0 -69 44.5 -109t104.5 -40t104.5 40t44.5 109q0 5 -3 8.5t-8 3.5zM512 115q-48 0 -84.5 29t-40.5 84h250
q-2 -37 -21.5 -63.5t-46.5 -38t-57 -11.5zM620 702q12 -2 22 4t13 17q2 8 -0.5 15t-8 12.5t-12.5 6.5q-6 2 -11.5 1t-10 -4t-8 -7.5t-4.5 -9.5q-2 -8 0 -15t7.5 -12.5t12.5 -7.5zM480.5 709.5q11.5 -2.5 21.5 3.5t13 17.5t-3 21.5t-17.5 12.5t-21.5 -3.5t-13 -17t3 -21.5
t17.5 -13zM744 644q11 -3 21 3.5t13 17.5t-3 21t-17 13q-8 2 -15 0t-12.5 -7.5t-7.5 -12.5q-1 -6 0 -11.5t3.5 -10.5t7 -8t10.5 -5z" />
    <glyph glyph-name="uniE619" unicode="&#xe619;" 
d="M689 284q43 36 68.5 87.5t25.5 110.5q0 106 -75.5 181t-181.5 75q-59 0 -111 -25t-88 -69t-50 -99q-3 -12 -4.5 -42.5t-1.5 -52.5v-26q3 -8 12 -8l63 2q12 -32 33.5 -57.5t49.5 -42.5q-85 -30 -138 -104.5t-53 -166.5q0 -9 6 -15.5t15 -6.5q6 0 11 3t8 8t3 11
q0 101 72 173t173 72q26 0 51 -6t49 -16q-3 -2 -6.5 -3t-7.5 -3l-6 -2q-4 -2 -8 -3v2q0 5 -3 8t-8 3l-75 -1q-3 0 -5.5 -1.5t-4 -4t-1.5 -5.5l1 -39q0 -11 11 -11l75 2q3 0 5.5 1.5t4 4t1.5 5.5v13q28 9 51 21q55 -32 88 -88t33 -122q0 -9 6 -15.5t15 -6.5t15.5 6.5
t6.5 15.5q0 18 -2.5 36t-7 35t-11 33t-14.5 31.5t-18 29.5t-21.5 26.5t-24 24t-26.5 21.5zM378 481q0 61 43.5 104.5t104.5 43.5q30 0 57 -11.5t47 -31.5t31.5 -47.5t11.5 -57.5t-11.5 -57t-31.5 -47t-47 -31.5t-57 -11.5q-61 0 -104.5 43t-43.5 104zM622 318q28 16 49.5 41
t33 56.5t11.5 65.5q0 79 -55.5 135t-134.5 56q-41 0 -77 -16t-62.5 -44.5t-39.5 -64.5h-1l-46 -1q21 75 83.5 123t142.5 48q97 0 166 -69t69 -167q0 -18 -3 -36.5t-8.5 -35.5t-13.5 -33t-18 -30t-22.5 -27t-25.5 -23q-20 11 -48 22z" />
    <glyph glyph-name="uniE61A" unicode="&#xe61a;" 
d="M562 666q0 13 -6.5 24t-17 17t-23.5 6q-19 0 -33 -13.5t-14 -33.5v-47q0 -10 4 -18.5t10 -15t15 -10t18 -3.5q19 0 33 14t14 33v47zM768 525q13 13 13 33t-13 33q-14 14 -33.5 14t-32.5 -14l-20 -19q-4 -5 -7 -10.5t-4.5 -11t-1.5 -12t1.5 -12t4.5 -11t7 -10.5
q14 -14 33.5 -14t32.5 14zM262 525q-13 13 -13 33t13 33q14 14 33.5 14t32.5 -14l20 -19q6 -7 9.5 -16t3.5 -17.5t-3.5 -17.5t-9.5 -16q-14 -14 -33.5 -14t-32.5 14zM188 289q-12 0 -23 6t-17 17t-6 24q0 9 3.5 18t10 15.5t15 10t17.5 3.5h47q13 0 23.5 -6.5t17 -17
t6.5 -23.5q0 -6 -1.5 -11t-3.5 -10t-5.5 -9t-7.5 -7t-8.5 -5.5t-9.5 -3.5t-11 -1h-47zM795 289q-13 0 -23.5 6t-17 17t-6.5 24q0 9 4 18t10 15.5t15 10t18 3.5h47q12 0 23 -6.5t17 -17t6 -23.5q0 -10 -3.5 -18.5t-9.5 -15t-15 -10t-18 -3.5h-47zM515 165q179 0 320 -112
q12 15 21 29q-69 62 -157 96t-184 34t-183.5 -34t-157.5 -96q3 -4 5.5 -7.5t5 -7.5t5.5 -7.5t6 -6.5q140 112 319 112zM515 336zM515 242q75 0 147 -22q40 51 40 116q0 51 -25 94.5t-68 69t-94 25.5q-25 0 -49.5 -7t-45 -19t-37.5 -29.5t-29 -38t-19 -45t-7 -50.5
q0 -16 3 -32t8 -30.5t12.5 -28t16.5 -25.5q72 21 147 22z" />
    <glyph glyph-name="uniE61B" unicode="&#xe61b;" 
d="M797 179h-58l76 76q10 10 10 23.5t-10 23.5l-367 367q-9 9 -23 9q-7 0 -13 -2.5t-11 -6.5l-209 -210q-10 -10 -10 -23q0 -7 2.5 -13t7.5 -11l233 -233h-51q-22 0 -37.5 -15.5t-15.5 -37t15.5 -37.5t37.5 -16h423q22 0 37.5 16t15.5 37.5t-15.5 37t-37.5 15.5zM471 180
l-256 256l210 209l367 -366l-99 -100l-65 -63h-93zM374 107q-8 0 -14 6t-6 14q0 4 1.5 7.5t4.5 6t6.5 4t7.5 1.5h84l40 -39h-124zM797 107h-131l40 39h91q4 0 7 -1t5.5 -2.5t4 -4t2.5 -5.5t1 -6q0 -20 -20 -20zM666 228l6 -3q1 0 2.5 0.5t3.5 2.5l45 45q2 2 2 5l-2 6l-45 45
q-6 6 -12 0l-45 -45q-2 -2 -2 -6l2 -5zM485 233l6 2q5 6 0 12l-195 195q-2 2 -5.5 2t-6.5 -2q-6 -6 0 -12l195 -195q2 -2 6 -2zM444 330q2 -2 5.5 -2t6.5 2q6 6 0 12l-130 129q-6 6 -12 0.5t0 -11.5zM182 678q10 0 19 -1q29 -3 55.5 -15.5t46.5 -33.5q2 -1 3.5 -1.5
t2.5 -0.5q4 0 6 2q6 6 0 12q-47 47 -112 53q-9 1 -21 1q-8 0 -8 -8t8 -8zM174 635q0 -4 2 -6.5t6 -2.5q48 -1 83 -36q2 -2 6 -2q1 0 2.5 0.5t3.5 1.5q6 6 0 12q-10 10 -21 17t-23 12.5t-25 8t-26 3.5q-8 0 -8 -8zM200 569q16 -4 28 -16q2 -2 6 -2q1 0 2.5 0.5t3.5 1.5
q5 6 0 12q-16 15 -36 20q-8 2 -16 3h-6q-9 0 -8 -9q0 -3 2.5 -5.5t5.5 -2.5h5q7 0 13 -2z" />
    <glyph glyph-name="uniE61C" unicode="&#xe61c;" 
d="M572 735q-15 0 -66 -8q-58 -9 -65 -9q-8 -1 -17 -4t-14 -6.5t-13 -9t-10 -7t-7 -4.5t-7.5 -5t-6.5 -5l-8 -5q-3 -2 -7 -5t-7.5 -6t-6.5 -6q-10 -9 -10 -21q1 -5 5 -6.5t4 -2.5q-9 -9 -9 -13q-1 -10 6.5 -15.5t17.5 -6.5q14 0 28 6.5t23 15.5q21 20 59 24q55 6 83 -2
q2 -1 5 -2t8.5 -3.5t7.5 -3.5q3 -1 5.5 -2.5t6.5 -2.5q6 -2 7 -2q-24 -3 -37 -2q-5 1 -40 2.5t-47 3.5q-6 1 -11.5 0t-9.5 -4q-3 -2 -5.5 -4.5t-4.5 -5t-3 -5.5q-5 -9 -5 -14t5 -14q5 -7 12 -10.5t19 -6.5q8 -3 17.5 -4.5t21.5 -3.5t33 -3.5t31 -3.5q2 0 4.5 -1t6 -2.5
t6.5 -3.5t8 -4.5t10 -4.5q14 -7 30 -11.5t35 -6.5q12 -1 21 -1q23 0 48 4.5t38 8.5l14 4q2 0 3 1l3 3q1 1 1.5 3t0.5 3v108q0 12 -11 13q-1 0 -20 2q-6 2 -10 4q-2 0 -4.5 1t-4.5 2t-5.5 2.5t-5.5 2.5q-14 7 -55 26q-11 6 -19 10t-18 8.5t-18 7.5q-28 13 -39 13h-7zM815 681
q-4 0 -8 -3l-2 -4q-1 -2 -1 -4v-161l3 -7q1 -1 2.5 -2t3 -1.5t2.5 -0.5h40q2 0 3.5 0.5t2.5 1.5l2 2q2 1 2.5 3t0.5 4v161q0 2 -0.5 4t-2.5 4l-8 3h-40zM474 533l-163 -162q-4 -4 -6 -9t-2 -10t2 -9.5t6 -8.5q16 -16 33 -3q3 2 4 3l164 164q109 -110 164 -164q4 -4 9 -6
t10 -2t9.5 2t8.5 6t6 8.5t2 9.5t-2 10t-6 9l-149 149q-1 0 -4 1l-3 1q-12 3 -27 4l-30 4q-15 1 -26 3zM512 477l-154 -154v-49q14 -1 27 -3.5t25 -5.5q9 -3 21 -9t23.5 -11t22.5 -7q10 -1 32 -3.5t39 -5t32 -7.5q24 -7 36 -25h37q6 0 9.5 3.5t3.5 9.5v113zM169 264
q-3 0 -5 -1t-3 -2q-3 -3 -3 -8v-161l3 -7l2 -2q1 -1 3 -1h3h40q4 0 7.5 3t3.5 7v161q0 5 -3 8l-4 2q-2 1 -4 1h-40zM343 254q-14 0 -29.5 -1.5t-27.5 -4t-22 -5t-16 -4.5l-5 -2q-3 -1 -5.5 -3.5t-2.5 -6.5v-108q1 -11 12 -12q1 0 19 -3q6 -1 10 -3q2 -1 3.5 -1.5t3.5 -1.5
l4 -2q2 -1 4.5 -2t4.5 -2q3 -1 6.5 -2.5t6 -3t7 -3.5t6.5 -3l7 -4l7 -3q2 -1 7.5 -3.5t7.5 -3.5q36 -17 55 -26q29 -12 39 -13q15 -1 73 8q15 2 22 3t17.5 3t16.5 2.5t9 0.5q7 1 13.5 3t12.5 5t10.5 6t10 7t7.5 6q1 1 8 5t9 5.5t8 5.5t9.5 6.5t8 6.5t7.5 7q10 9 10 21
q-1 5 -5 6.5t-4 2.5q9 9 9 13q1 10 -6.5 15.5t-17.5 6.5q-14 1 -28 -6t-23 -16q-21 -19 -59 -24q-55 -6 -83 3q-2 0 -5 1.5t-8 3.5t-8 3q-1 1 -3 1.5t-3 1.5l-3 1q-2 1 -3 1l-2 1l-5 1q24 4 37 2q6 -1 24 -1.5t36 -1.5t27 -3q12 -2 21 4t13.5 15.5t4.5 14t-5 14.5
q-7 10 -31 16q-14 4 -39 8q-10 2 -22.5 3t-23 2t-18.5 2q-2 1 -35 16q-32 15 -65 18q-11 2 -21 1z" />
    <glyph glyph-name="uniE61D" unicode="&#xe61d;" 
d="M553 331zM870 447q-15 92 -80 133q-1 0 -2 0.5t-2 0.5l-1 1h-2q-32 10 -67 -25q-22 -22 -40 -59q-3 -7 3 -12q25 -25 31.5 -73.5t-5.5 -90.5q-6 -24 -20 -45.5t-31.5 -37t-29.5 -24.5t-24 -16q-7 -2 -13 2l-10 11q-1 1 -3 2t-4 1t-4 -1t-3.5 -2.5t-2.5 -3.5l-68 -168
q-2 -5 1 -9.5t9 -4.5h188q6 0 9 5.5t0 10.5l-9 13q-6 8 2 14q12 8 24.5 18t31 24.5t35.5 31t28 30.5q35 45 54 115t5 159zM366 251q-30 38 -44 74.5t-13.5 65t11.5 55.5t26 45.5t35 35.5t33 25t25 15q4 2 7.5 1t5.5 -4l6 -8q3 -6 9.5 -5t8.5 7l65 166q2 5 -1 9.5t-8 4.5
h-187q-7 0 -9.5 -6t1.5 -11l8 -10q2 -3 2.5 -6t-1 -5.5t-4.5 -4.5q-17 -9 -39 -26t-35 -30l-13 -12q-5 -5 -12.5 -14t-26.5 -38t-32.5 -60.5t-22 -78.5t-3.5 -94q5 -45 18.5 -79t28 -52t32 -30t26 -14.5t15.5 -3.5h2l150 4q8 0 10 7t-5 12q-10 6 -21 15.5t-19.5 17.5
t-15 15.5t-10.5 11.5zM556 596q-16 -2 -30.5 -12t-23.5 -21.5t-16.5 -26t-10 -20.5t-3.5 -9q-47 -152 -88 -234q-1 -2 -1 -5t2 -5q45 -62 111 -84q3 -1 6 0q7 1 17 13t18.5 27.5t16 31t11.5 25.5l4 11q20 53 47.5 121t37.5 95q22 55 47 76q4 3 4 7.5t-2.5 7.5t-7.5 3
q-99 3 -139 -1z" />
    <glyph glyph-name="uniE61E" unicode="&#xe61e;" 
d="M517 -58q-90 0 -173 35.5t-142.5 95.5t-95 142.5t-35.5 173.5q0 73 22.5 141t64 123t96 96.5t123 64t140.5 22.5q91 0 174 -35.5t142.5 -95.5t95 -142.5t35.5 -173.5q0 -73 -22.5 -141t-64 -123t-96.5 -96.5t-123 -64t-141 -22.5zM517.5 817q-116.5 0 -215 -57.5
t-156 -156t-57.5 -214.5t57.5 -214.5t156 -156t215 -57.5t215 57.5t156 156t57.5 214.5t-57.5 214.5t-156 156t-215 57.5zM627 615q-1 -1 -2.5 -1.5t-2 -2t-0.5 -3.5q0 -6 6 -5h105v-104q0 -2 1 -3.5t2 -1.5l3 -2q3 0 4.5 2t1.5 4v1v110q0 6 -6 6h-111h-1zM295 286
q-2 -1 -3.5 -2.5t-1.5 -4.5v-109q0 -2 0.5 -3.5t2 -2t3.5 -0.5h111q2 0 4 1.5t2 4.5q0 6 -6 6h-105v104q0 2 -1.5 4t-4.5 2h-1zM739 286q-5 -2 -6 -7v-103h-105q-6 0 -6 -6t6 -6h111q2 0 3.5 0.5t2.5 2t1 3.5v109q0 6 -6 7h-1zM295 615q-5 -1 -5 -6v-110q0 -3 1.5 -4.5
t4.5 -2.5q6 0 6 6v1v104h105q2 -1 4 1t2 4q0 7 -6 7h-111h-1zM226 395q-6 -1 -5 -7q2 -5 7 -5h137q6 0 6 6q0 2 -1.5 4t-4.5 2h-138h-1zM669 395q-6 -1 -5 -7t7 -5h137q2 0 3 0.5t2 2t1 3.5t-1.5 4t-4.5 2h-137h-2zM518 244q-3 0 -4.5 -2t-1.5 -4v-136q-1 -6 5 -7q2 0 3.5 1
t2.5 2.5t1 2.5v1v136q0 6 -6 6v0zM518 683q-2 0 -4 -2t-1 -4v-136q-1 -6 6 -6q2 0 4 1.5t2 4.5v136q0 6 -6 6h-1zM469 482q-3 0 -4.5 -3t-0.5 -6l44 -90h-38q-2 0 -3.5 -1t-2 -2.5t-0.5 -2.5q0 -6 6 -6h42v-19h-42q-3 0 -5 -2t-1 -4q0 -6 6 -6h42v-38q-1 -6 6 -6q2 0 4 2
t2 4v38h41q3 0 5 2t2 4q0 6 -7 6h-41v19h41q3 0 5 1.5t2 4.5q0 6 -7 6h-37l43 90q3 6 -3 9h-4q-1 0 -2.5 -1t-1.5 -2l-42 -88l-42 88q-2 4 -7 3v0zM517 -58q-90 0 -173 35.5t-142.5 95.5t-95 142.5t-35.5 173.5q0 73 22.5 141t64 123t96 96.5t123 64t140.5 22.5
q91 0 174 -35.5t142.5 -95.5t95 -142.5t35.5 -173.5q0 -73 -22.5 -141t-64 -123t-96.5 -96.5t-123 -64t-141 -22.5zM517.5 817q-116.5 0 -215 -57.5t-156 -156t-57.5 -214.5t57.5 -214.5t156 -156t215 -57.5t215 57.5t156 156t57.5 214.5t-57.5 214.5t-156 156t-215 57.5z
M627 615q-1 -1 -2.5 -1.5t-2 -2t-0.5 -3.5q0 -6 6 -5h105v-104q0 -2 1 -3.5t2 -1.5l3 -2q3 0 4.5 2t1.5 4v1v110q0 6 -6 6h-111h-1zM295 286q-2 -1 -3.5 -2.5t-1.5 -4.5v-109q0 -2 0.5 -3.5t2 -2t3.5 -0.5h111q2 0 4 1.5t2 4.5q0 6 -6 6h-105v104q0 2 -1.5 4t-4.5 2h-1z
M739 286q-5 -2 -6 -7v-103h-105q-6 0 -6 -6t6 -6h111q2 0 3.5 0.5t2.5 2t1 3.5v109q0 6 -6 7h-1zM295 615q-5 -1 -5 -6v-110q0 -3 1.5 -4.5t4.5 -2.5q6 0 6 6v1v104h105q2 -1 4 1t2 4q0 7 -6 7h-111h-1zM226 395q-6 -1 -5 -7q2 -5 7 -5h137q6 0 6 6q0 2 -1.5 4t-4.5 2h-138
h-1zM669 395q-6 -1 -5 -7t7 -5h137q2 0 3 0.5t2 2t1 3.5t-1.5 4t-4.5 2h-137h-2zM518 244q-3 0 -4.5 -2t-1.5 -4v-136q-1 -6 5 -7q2 0 3.5 1t2.5 2.5t1 2.5v1v136q0 6 -6 6v0zM518 683q-2 0 -4 -2t-1 -4v-136q-1 -6 6 -6q2 0 4 1.5t2 4.5v136q0 6 -6 6h-1zM469 482
q-3 0 -4.5 -3t-0.5 -6l44 -90h-38q-2 0 -3.5 -1t-2 -2.5t-0.5 -2.5q0 -6 6 -6h42v-19h-42q-3 0 -5 -2t-1 -4q0 -6 6 -6h42v-38q-1 -6 6 -6q2 0 4 2t2 4v38h41q3 0 5 2t2 4q0 6 -7 6h-41v19h41q3 0 5 1.5t2 4.5q0 6 -7 6h-37l43 90q3 6 -3 9h-4q-1 0 -2.5 -1t-1.5 -2l-42 -88
l-42 88q-2 4 -7 3v0z" />
    <glyph glyph-name="uniE61F" unicode="&#xe61f;" 
d="M517.5 -57q-90.5 0 -173 35.5t-142.5 95t-95 142t-35 173.5t35 173.5t95 142t142.5 95t173 35.5t173 -35.5t142.5 -95t95 -142t35 -173.5t-35 -173.5t-95 -142t-142.5 -95t-173 -35.5zM517 816q-69 0 -134 -21.5t-117.5 -61t-92.5 -92t-61.5 -117.5t-21.5 -135
q0 -116 57.5 -214.5t156 -155.5t214 -57t214 57t156 155.5t57.5 214.5t-57.5 214.5t-156 155.5t-214.5 57zM523 81h-4l-2 1h-1v1h-2l-2 1q-1 1 -9 6.5t-25.5 18t-34.5 25.5q-79 60 -125 107q-16 16 -29.5 32.5t-25 33t-19.5 32.5q-29 54 -29 103q0 61 44 108q48 52 114 52
q52 -1 98 -32q29 -19 49 -48q21 29 50 48q46 32 98 32q24 0 47 -8l-4 -12q-10 4 -21 5.5t-22 1.5q-48 0 -91 -29q-31 -21 -52 -52l-5 -8l-5 8q-10 15 -23 28.5t-29 23.5q-43 29 -90 29h-1q-60 0 -104 -47q-41 -44 -41 -100q0 -11 1.5 -23t5 -24t9 -24.5t11.5 -25.5
q26 -47 72 -95q46 -47 124 -106q62 -47 68 -49l1 -1l1 -6l1 6l1 -7l1 7l2 -7l-1 7l3 -6l-1 6l1 1q19 13 66 49q75 59 121 106q46 48 72 95q11 20 17 39l12 -4q-7 -20 -18 -41q-26 -48 -74 -98q-46 -47 -122 -106q-59 -46 -67 -50v-1h-2l-1 -1q-1 0 -1 -1h-1h-1h-1l-2 -1h-1
h-1v0zM729 546q-6 -1 -3 -6l29 -60h-26q-3 -1 -4 -4q1 -4 5 -4h27v-12h-28q-3 -2 -4 -4q0 -4 4 -4h28v-25q0 -4 4 -4t4 4v25h28q3 1 4 4q0 4 -4 4h-28v12h28q3 2 4 4q0 4 -4 4h-25l28 60q2 4 -2 6q-3 0 -5 -2l-28 -58l-28 58q-1 3 -4 2v0zM761 382q-28 0 -51.5 13.5
t-37.5 37.5t-14 51q0 43 30.5 73t73 30t72.5 -30t30 -72.5t-30 -72.5t-73 -30zM761 577q-38 0 -65.5 -27t-27.5 -65.5t27.5 -65.5t65.5 -27t65.5 27t27.5 65q0 25 -12.5 46.5t-34 34t-46.5 12.5z" />
    <glyph glyph-name="uniE620" unicode="&#xe620;" 
d="M517.5 -57q-90.5 0 -173 35.5t-142.5 95t-95 142t-35 173.5t35 173.5t95 142t142.5 95t173 35.5t173 -35.5t142.5 -95t95 -142t35 -173.5t-35 -173.5t-95 -142t-142.5 -95t-173 -35.5zM517 816q-69 0 -134 -21.5t-117.5 -61t-92.5 -92t-61.5 -117.5t-21.5 -135
q0 -116 57.5 -214.5t156 -155.5t214 -57t214 57t156 155.5t57.5 214.5t-57.5 214.5t-156 155.5t-214.5 57zM764 538h-482q-14 0 -26 -6.5t-19 -18t-7 -25.5v-291q0 -20 15.5 -35t36.5 -15h482q22 0 37 15t15 35v291q0 21 -15 35.5t-37 14.5zM282 528h482q9 0 16.5 -3
t13 -8.5t8.5 -13t3 -15.5v-45h-565v45q0 27 26 37q8 3 16 3zM805 433v-65h-565v65h565zM764 157h-482q-17 0 -29.5 12t-12.5 28v161h565v-161q0 -16 -12 -28t-29 -12zM638 299h-327q-6 0 -6 -5t6 -5h328q2 0 3.5 1.5t1.5 3.5q0 5 -6 5zM638 264h-327q-6 0 -6 -5t6 -5h328
q4 1 5 5q-2 5 -6 5zM638 228h-327q-3 0 -4.5 -1.5t-1.5 -3.5q0 -5 6 -5h328q2 0 3.5 1.5t1.5 3.5q-1 5 -6 5z" />
    <glyph glyph-name="uniE621" unicode="&#xe621;" 
d="M517 -58q-91 0 -174 35.5t-143 95.5t-95.5 143t-35.5 173.5t35.5 173.5t95.5 143t143 95.5t174 35.5q73 0 141 -22.5t123 -64t96.5 -96.5t64 -123.5t22.5 -140.5q0 -46 -9 -90.5t-26 -84t-41.5 -76t-54.5 -66.5t-66 -54.5t-76 -41.5t-84.5 -26t-89.5 -9zM517 818
q-117 0 -215.5 -57t-156 -156t-57.5 -215.5t57.5 -215t156 -156t215 -57.5t215.5 57.5t156.5 156t57.5 215.5q0 58 -15.5 113.5t-43.5 102.5t-67.5 86.5t-86.5 67.5t-102.5 43t-113.5 15zM399 636q-3 0 -6.5 -0.5t-7 -2t-6.5 -3.5t-5.5 -4.5t-4.5 -5.5t-3.5 -6t-1.5 -7h-1
l-75 -254q0 -1 -0.5 -1t-0.5 -1v-165q0 -14 5 -23q7 -11 21 -11h258q4 -9 14 -9h110q4 0 8 2.5t6 6.5h11q14 0 21 11q1 3 2.5 5.5t2 5.5t0.5 6v6v165v1v1l-76 254v0q-3 13 -13 21t-23 8h-235zM399 625h235q9 0 16.5 -6t8.5 -15l76 -253v-165q0 -5 -0.5 -9.5t-2.5 -7.5
q-4 -6 -12 -6h-10l-9 75q6 0 10.5 5t4.5 11v30q0 7 -5 12t-12 5h-119q-7 0 -12 -5t-5 -12v-29q0 -7 5 -12t11 -5l-9 -75h-257q-4 1 -6.5 2t-4.5 4q-4 6 -4 18v163l76 254v0q1 4 2.5 7t4 5.5t5.5 4.5t6.5 3t6.5 1v0zM419 601q-6 0 -12 -3t-10 -8t-5 -11v-1l-41 -171
q-1 -5 0 -9.5t4 -7.5q1 -2 3 -3l2 -2q2 -1 3.5 -1.5t3.5 -1t4 -0.5h291q11 0 16 7q3 4 4 8.5t1 9.5l-41 171v1q-2 6 -6 11t-9.5 8t-12.5 3h-195zM419 590h196q3 0 6.5 -2t6.5 -5t3 -7l41 -171q1 -5 -2 -9q-1 -1 -3 -2t-5 -1h-290h-1q-5 0 -8 4q-1 1 -1.5 3t0.5 5l40 171
q1 6 6 10t11 4v0zM321 354q-3 0 -4 -2t-1 -4q0 -6 6 -5h389q6 0 6 5q0 3 -2 4.5t-4 1.5h-389h-1v0zM329 301q-5 0 -9 -4t-4 -9v-7q0 -6 4 -9.5t9 -3.5h39q4 0 7 1.5t4.5 4.5t1.5 7v7q0 5 -3.5 9t-9.5 4h-39zM400 301q-6 0 -9.5 -4t-3.5 -9v-7q0 -6 3.5 -9.5t9.5 -3.5h39
q5 0 9 3.5t4 9.5v7q0 5 -4 9t-9 4h-39zM470 301q-5 0 -9 -4t-4 -9v-7q0 -6 4 -9.5t9 -3.5h40q5 0 8.5 3.5t3.5 9.5v7q0 5 -3.5 9t-8.5 4h-40zM329 290h39l2 -2v-7q0 -2 -2 -2h-39q-2 0 -2 2v7q0 2 2 2zM400 290h39q2 0 2 -2v-7q0 -2 -2 -2h-39q-2 0 -2 2v7q0 2 2 2zM470 290
h40l2 -2v-7q0 -2 -2 -2h-40q-1 0 -1 2v7q0 2 1 2zM581 290h118q7 0 7 -6v-29q0 -3 -2 -4.5t-5 -1.5l-2 14q0 5 -2.5 8.5t-6.5 6t-9 2.5h-78q-4 0 -8.5 -2.5t-7 -6t-2.5 -8.5l-2 -14h-1q-6 0 -6 6v29q2 5 7 6v0zM601 268h50v-114h-66q-5 0 -4 6l12 102q1 2 3.5 4t4.5 2v0z
M662 268h3l11 -114h-14v114zM677 268h2q7 0 7 -6l13 -102q1 -6 -5 -6h-7zM329 258q-5 0 -9 -3.5t-4 -8.5v-8q0 -3 2 -6t5 -5t6 -2h39q2 0 4 0.5t4 2.5l2 2q2 2 2.5 4t0.5 4v8q0 3 -1.5 6t-4.5 4.5t-7 1.5h-39zM400 258q-6 0 -9.5 -3.5t-3.5 -8.5v-8q0 -5 3.5 -9t9.5 -4h39
q5 0 9 4t4 9v8q0 5 -4 8.5t-9 3.5h-39zM470 258q-5 0 -9 -3.5t-4 -8.5v-8q0 -5 4 -9t9 -4h40q5 0 8.5 4t3.5 9v8q0 2 -0.5 4t-1.5 3.5t-2.5 2.5t-3.5 1.5t-4 0.5h-40zM329 247h39q1 0 1.5 -0.5t0.5 -1.5v-7q0 -2 -2 -2h-39q-2 0 -2 2v7q0 2 2 2zM400 247h39q2 0 2 -2v-7
q0 -2 -2 -2h-39q-2 0 -2 2v7q0 2 2 2zM470 247h40l1 -1q1 0 1 -1v-7q0 -2 -2 -2h-40q-1 0 -1 2v7q0 2 1 2zM329 216q-5 0 -9 -3.5t-4 -8.5v-8q0 -13 13 -13h39q6 0 9.5 4t3.5 9v8q0 2 -1 4.5t-2.5 4t-4 2.5t-5.5 1h-39zM400 216q-6 0 -9.5 -3.5t-3.5 -8.5v-8q0 -13 13 -13
h39q13 0 13 13v8q0 5 -4 8.5t-9 3.5h-39zM470 216q-5 0 -9 -3.5t-4 -8.5v-8q0 -13 13 -13h40q5 0 8.5 4t3.5 9v8q0 2 -0.5 4t-1.5 3.5t-2.5 2.5t-3.5 1.5t-4 0.5h-40zM329 206h39q1 0 1.5 -0.5t0.5 -1.5v-8q0 -2 -2 -2h-39q-2 0 -2 2v8q0 2 2 2zM400 206h39q2 0 2 -2v-8
q0 -2 -2 -2h-39q-2 0 -2 2v8q0 2 2 2zM470 206h40h1q1 -1 1 -2v-8q0 -2 -2 -2h-40q-1 0 -1 2v8q0 2 1 2z" />
    <glyph glyph-name="uniE622" unicode="&#xe622;" 
d="M678 330q20 16 36 37t27.5 44.5t18 50t6.5 53.5q0 66 -32.5 121t-88 87.5t-120.5 32.5q-83 0 -148 -51t-85 -130q-3 -11 -4.5 -40t-1.5 -49v-25q3 -7 11 -7l60 1q10 -29 30.5 -53t47.5 -40q-80 -28 -130 -97.5t-50 -156.5q0 -9 6 -14.5t14.5 -5.5t14 5.5t5.5 14.5
q0 94 67.5 161.5t162.5 67.5q48 0 94 -20q-6 -3 -12.5 -5.5t-13.5 -4.5v2q0 10 -10 10l-71 -1q-10 0 -10 -11l1 -36q0 -10 10 -10l70 2q11 0 11 10v12q12 4 24.5 9t23.5 11q20 -12 37.5 -27.5t31 -34.5t23.5 -40.5t15.5 -45.5t5.5 -49q0 -6 2.5 -10.5t7 -7t10.5 -2.5
q3 0 6 1t5.5 2.5t4.5 4t3 5.5t1 7q-1 68 -32.5 126.5t-84.5 95.5zM387 515.5q0 57.5 40.5 98t97.5 40.5t97.5 -40.5t40.5 -98.5q0 -37 -18.5 -69t-50.5 -50.5t-69 -18.5q-57 0 -97.5 40.5t-40.5 98zM615 362q41 24 65 64.5t24 88.5q0 74 -52.5 126.5t-126.5 52.5
q-57 0 -103 -32.5t-65 -84.5l-44 -1q20 70 78.5 115t133.5 45q91 0 156 -64.5t65 -156.5q0 -52 -23 -97.5t-63 -76.5q-18 10 -45 21z" />
    <glyph glyph-name="uniE623" unicode="&#xe623;" 
d="M884 389zM516 758zM516 21zM869 389zM516 36zM860 308q-2 1 -4 1q-12 -3 -24 -3q-18 0 -36.5 8t-30 18t-22 22.5t-14 18t-4.5 8.5q-1 1 -2 1.5t-2 0.5q-2 0 -3 -2q-3 -5 -5.5 -9t-13.5 -17.5t-22 -23t-29.5 -17.5t-37.5 -8q-12 0 -24 3l-3 -1q-2 -1 -1 -3
q10 -131 32 -173q12 -21 27.5 -36.5t25 -20.5t25.5 -12q23 -11 25 -21q1 -4 4 -4q1 0 2.5 1t1.5 3q1 7 6.5 11t19.5 10q15 7 24.5 12t25 20.5t27.5 36.5q23 42 33 173q0 2 -1 3zM574 324q10 8 22 8h4l4 -1q5 -1 9 -1.5t8 -0.5q14 0 27.5 6t22.5 14t16.5 18t10.5 14.5t4 6.5
q10 18 30 18q10 0 18 -5t12 -13q1 -1 2.5 -3.5t5.5 -8.5t9 -11q3 16 5 32t2 32q0 129 -91.5 220t-220 91t-220 -91t-91.5 -220q0 -84 42 -156t113.5 -113.5t155.5 -41.5q30 0 58.5 5.5t55.5 15.5q-18 58 -25 156q-2 18 11 29zM490 266v-55h-34v53q-49 1 -81 24l13 35
q15 -10 35 -16.5t41 -6.5q14 0 26 4t20 11t12.5 16.5t4.5 21.5q0 21 -14.5 35.5t-45.5 27.5q-17 6 -30 13t-24 15t-18 17.5t-11 21t-4 25.5q0 16 5.5 30.5t16 25.5t25.5 18.5t33 10.5v54h33v-52q39 -1 69 -18l-13 -35q-32 18 -67 18q-29 0 -43 -14t-14 -32q0 -14 7.5 -24
t21 -18.5t37.5 -18.5q28 -11 46 -24.5t27.5 -31.5t9.5 -41q0 -13 -3.5 -24.5t-10.5 -22.5t-17 -19.5t-23.5 -14.5t-29.5 -9z" />
    <glyph glyph-name="uniE624" unicode="&#xe624;" 
d="M516 758zM474 740zM407 682v-187h-187v187h187zM482 758h-336v-336h336v336zM258 646h112v-113h-112v113zM549 353h67v-67h-67v67zM683 353h67v-67h-67v67zM817 353h67v-67h-67v67zM616 286h67v-67h-67v67zM750 286h67v-67h-67v67zM549 219h67v-67h-67v67zM683 219h67
v-67h-67v67zM817 219h67v-67h-67v67zM616 152h67v-67h-67v67zM750 152h67v-67h-67v67zM549 85h67v-67h-67v67zM683 85h67v-67h-67v67zM817 85h67v-67h-67v67zM407 279v-187h-187v187h187zM482 353h-336v-336h336v336zM810 682v-187h-187v187h187zM885 758h-336v-336h336v336
zM661 646h112v-113h-112v113z" />
    <glyph glyph-name="uniE625" unicode="&#xe625;" 
d="M942 590q-9 9 -21.5 9.5t-21.5 -7.5l-370 -370q-11 -12 -17 -12t-18 12l-370 370q-8 8 -21 7.5t-22 -10t-9.5 -22t8.5 -21.5l411 -411q2 -2 5 -4t6.5 -2.5t6.5 -1.5h5q12 1 19 8l411 411q3 3 4.5 6.5t2.5 7.5t1 8t-1.5 7.5t-3.5 7.5t-5 7z" />
    <glyph glyph-name="uniE626" unicode="&#xe626;" 
d="M758.5 -54.5q9.5 9.5 10 22.5t-7.5 22l-377 376q-12 12 -12 18t12 18l377 376q5 6 7 14t-0.5 16t-8.5 14q-10 9 -23 9.5t-22 -7.5l-418 -419q-7 -7 -8 -18v-6q0 -5 2 -10t6 -8l418 -419q9 -8 22 -8t22.5 9.5z" />
    <glyph glyph-name="uniE627" unicode="&#xe627;" 
d="M877 404zM298 -54q-9 9 -10 22t8 22l376 376q12 12 12 18t-12 18l-376 376q-9 9 -8 22t10 22q6 6 14.5 8.5t16.5 0.5t13 -7l419 -419q7 -7 7 -18v-6q0 -5 -2 -10t-5 -8l-419 -419q-5 -5 -13 -7t-16.5 0.5t-14.5 8.5z" />
    <glyph glyph-name="uniE628" unicode="&#xe628;" 
d="M672 511q13 0 22 -9q7 -7 9 -15t0 -16.5t-8 -14.5l-160 -161q-7 -7 -16.5 -9t-18.5 2q-1 1 -2 1q-5 3 -8 6v0l-161 160q-9 9 -9 22.5t9.5 23t22.5 9.5z" />
  </font>
</defs>
</svg>
